{
  "source": "C:\\Users\\Peter\\Desktop\\stuff\\MIUN\\quantitative_research\\video_compression\\videos\\BVI-HD\\BVI-HD_CDVL_videos\\ORIG\\Rowing_1920x1080_30fps.mp4",
  "output": "C:\\Users\\Peter\\Desktop\\stuff\\MIUN\\quantitative_research\\video_compression\\compressed_videos\\BVI-HD\\av1\\3\\Rowing_1920x1080_30fps_av1.mkv",
  "codec": "av1",
  "ok": "Input #0, mov,mp4,m4a,3gp,3g2,mj2, from 'C:\\Users\\Peter\\Desktop\\stuff\\MIUN\\quantitative_research\\video_compression\\videos\\BVI-HD\\BVI-HD_CDVL_videos\\ORIG\\Rowing_1920x1080_30fps.mp4':\n  Metadata:\n    major_brand     : isom\n    minor_version   : 512\n    compatible_brands: isomiso2avc1mp41\n    encoder         : Lavf54.28.101\n  Duration: 00:00:05.00, start: 0.000000, bitrate: 259220 kb/s\n  Stream #0:0[0x1](und): Video: h264 (High 4:4:4 Predictive) (avc1 / 0x31637661), yuv420p(progressive), 1920x1080, 259216 kb/s, 30 fps, 30 tbr, 30 tbn (default)\n    Metadata:\n      handler_name    : VideoHandler\n      vendor_id       : [0][0][0][0]\n[out#0/matroska @ 0000024a2939f040] Codec AVOption b:a (set bitrate (in bits/s)) has not been used for any stream. The most likely reason is either wrong type (e.g. a video option with no video streams) or that it is a private option of some decoder which was not actually used for any stream.\nStream mapping:\n  Stream #0:0 -> #0:0 (h264 (native) -> av1 (libsvtav1))\nPress [q] to stop, [?] for help\nSvt[info]: -------------------------------------------\nSvt[info]: SVT [version]:\tSVT-AV1 Encoder Lib v3.1.0-19-g6ecfe8ec\nSvt[info]: SVT [build]  :\tGCC 15.2.0\t 64 bit\nSvt[info]: LIB Build date: Aug 17 2025 11:37:13\nSvt[info]: -------------------------------------------\nSvt[info]: Level of Parallelism: 5\nSvt[info]: Number of PPCS 93\nSvt[info]: [asm level on system : up to avx2]\nSvt[info]: [asm level selected : up to avx2]\nSvt[info]: -------------------------------------------\nSvt[info]: SVT [config]: main profile\ttier (auto)\tlevel (auto)\nSvt[info]: SVT [config]: width / height / fps numerator / fps denominator \t\t: 1920 / 1080 / 30 / 1\nSvt[info]: SVT [config]: bit-depth / color format \t\t\t\t\t: 8 / YUV420\nSvt[info]: SVT [config]: preset / tune / pred struct \t\t\t\t\t: 4 / PSNR / random access\nSvt[info]: SVT [config]: gop size / mini-gop size / key-frame type \t\t\t: 161 / 16 / key frame\nSvt[info]: SVT [config]: BRC mode / target bitrate (kbps)\t\t\t\t: VBR / 3000 \nSvt[info]: SVT [config]: AQ mode / Variance Boost \t\t\t\t\t: 2 / 0\nSvt[info]: SVT [config]: sharpness / luminance-based QP bias \t\t\t\t: 0 / 0\nSvt[info]: SVT [config]: QP scale compress strength \t\t\t\t\t: 0\nSvt[info]: -------------------------------------------\nOutput #0, matroska, to 'C:\\Users\\Peter\\Desktop\\stuff\\MIUN\\quantitative_research\\video_compression\\compressed_videos\\BVI-HD\\av1\\3\\Rowing_1920x1080_30fps_av1.mkv':\n  Metadata:\n    major_brand     : isom\n    minor_version   : 512\n    compatible_brands: isomiso2avc1mp41\n    encoder         : Lavf62.3.100\n  Stream #0:0(und): Video: av1 (AV01 / 0x31305641), yuv420p(tv, progressive), 1920x1080, q=2-31, 3000 kb/s, 30 fps, 1k tbn (default)\n    Metadata:\n      encoder         : Lavc62.11.100 libsvtav1\n      handler_name    : VideoHandler\n      vendor_id       : [0][0][0][0]\n    Side data:\n      cpb: bitrate max/min/avg: 0/0/3000000 buffer size: 3000000 vbv_delay: N/A\nframe=    0 fps=0.0 q=0.0 size=       0KiB time=N/A bitrate=N/A speed=N/A elapsed=0:00:01.02    \nframe=    0 fps=0.0 q=0.0 size=       0KiB time=N/A bitrate=N/A speed=N/A elapsed=0:00:01.57    \nframe=    0 fps=0.0 q=0.0 size=       0KiB time=N/A bitrate=N/A speed=N/A elapsed=0:00:02.12    \nframe=    0 fps=0.0 q=0.0 size=       0KiB time=N/A bitrate=N/A speed=N/A elapsed=0:00:02.65    \nframe=    0 fps=0.0 q=0.0 size=       0KiB time=N/A bitrate=N/A speed=N/A elapsed=0:00:03.18    \nframe=    1 fps=0.3 q=44.0 size=       1KiB time=00:00:00.00 bitrate=N/A speed=   0x elapsed=0:00:03.68    \nframe=    1 fps=0.2 q=44.0 size=       1KiB time=00:00:00.00 bitrate=N/A speed=   0x elapsed=0:00:04.20    \nframe=    3 fps=0.6 q=52.0 size=       1KiB time=00:00:00.06 bitrate=  85.6kbits/s speed=0.0141x elapsed=0:00:04.72    \nframe=    7 fps=1.3 q=52.0 size=       1KiB time=00:00:00.20 bitrate=  28.5kbits/s speed=0.0381x elapsed=0:00:05.24    \nframe=   10 fps=1.7 q=54.0 size=       1KiB time=00:00:00.30 bitrate=  19.0kbits/s speed=0.0516x elapsed=0:00:05.81    \nframe=   16 fps=2.5 q=54.0 size=       1KiB time=00:00:00.50 bitrate=  11.4kbits/s speed=0.0788x elapsed=0:00:06.34    \nframe=   20 fps=2.9 q=54.0 size=       1KiB time=00:00:00.63 bitrate=   9.0kbits/s speed=0.0922x elapsed=0:00:06.87    \nframe=   23 fps=3.1 q=52.0 size=       1KiB time=00:00:00.73 bitrate=   7.8kbits/s speed=0.0992x elapsed=0:00:07.39    \nframe=   28 fps=3.5 q=55.0 size=       1KiB time=00:00:00.90 bitrate=   6.3kbits/s speed=0.113x elapsed=0:00:07.97    \nframe=   32 fps=3.8 q=55.0 size=       1KiB time=00:00:01.03 bitrate=   5.5kbits/s speed=0.122x elapsed=0:00:08.48    \nframe=   36 fps=4.0 q=55.0 size=       1KiB time=00:00:01.16 bitrate=   4.9kbits/s speed=0.129x elapsed=0:00:09.01    \nframe=   39 fps=4.1 q=53.0 size=       1KiB time=00:00:01.26 bitrate=   4.5kbits/s speed=0.133x elapsed=0:00:09.54    \nframe=   43 fps=4.3 q=53.0 size=       1KiB time=00:00:01.40 bitrate=   4.1kbits/s speed=0.139x elapsed=0:00:10.08    \nframe=   49 fps=4.6 q=46.0 size=       1KiB time=00:00:01.60 bitrate=   3.6kbits/s speed=0.151x elapsed=0:00:10.62    \nframe=   55 fps=4.9 q=56.0 size=       1KiB time=00:00:01.80 bitrate=   3.2kbits/s speed=0.161x elapsed=0:00:11.14    \nframe=   57 fps=4.9 q=51.0 size=       1KiB time=00:00:01.86 bitrate=   3.1kbits/s speed=0.16x elapsed=0:00:11.67    \nframe=   63 fps=5.2 q=55.0 size=       1KiB time=00:00:02.06 bitrate=   2.8kbits/s speed=0.169x elapsed=0:00:12.20    \nframe=   69 fps=5.4 q=52.0 size=       1KiB time=00:00:02.26 bitrate=   2.5kbits/s speed=0.177x elapsed=0:00:12.77    \nframe=   73 fps=5.5 q=54.0 size=       1KiB time=00:00:02.40 bitrate=   2.4kbits/s speed=0.18x elapsed=0:00:13.30    \nframe=   79 fps=5.7 q=54.0 size=       1KiB time=00:00:02.60 bitrate=   2.2kbits/s speed=0.188x elapsed=0:00:13.82    \nframe=   85 fps=5.9 q=52.0 size=       1KiB time=00:00:02.80 bitrate=   2.0kbits/s speed=0.195x elapsed=0:00:14.35    \nframe=   89 fps=6.0 q=52.0 size=       1KiB time=00:00:02.93 bitrate=   1.9kbits/s speed=0.197x elapsed=0:00:14.87    \nframe=   93 fps=6.0 q=52.0 size=       1KiB time=00:00:03.06 bitrate=   1.9kbits/s speed=0.199x elapsed=0:00:15.39    \nframe=  101 fps=6.4 q=51.0 size=       1KiB time=00:00:03.33 bitrate=   1.7kbits/s speed=0.21x elapsed=0:00:15.90    \nframe=  105 fps=6.4 q=52.0 size=       1KiB time=00:00:03.46 bitrate=   1.6kbits/s speed=0.211x elapsed=0:00:16.42    \nframe=  109 fps=6.4 q=51.0 size=       1KiB time=00:00:03.60 bitrate=   1.6kbits/s speed=0.212x elapsed=0:00:16.95    \nframe=  117 fps=6.7 q=52.0 size=       1KiB time=00:00:03.86 bitrate=   1.5kbits/s speed=0.221x elapsed=0:00:17.48    \nframe=  121 fps=6.7 q=51.0 size=       1KiB time=00:00:04.00 bitrate=   1.4kbits/s speed=0.222x elapsed=0:00:18.01    \nframe=  125 fps=6.7 q=53.0 size=       1KiB time=00:00:04.13 bitrate=   1.4kbits/s speed=0.223x elapsed=0:00:18.52    \nframe=  133 fps=7.0 q=55.0 size=       1KiB time=00:00:04.40 bitrate=   1.3kbits/s speed=0.231x elapsed=0:00:19.04    \nframe=  137 fps=7.0 q=53.0 size=       1KiB time=00:00:04.53 bitrate=   1.3kbits/s speed=0.232x elapsed=0:00:19.55    \nframe=  141 fps=7.0 q=55.0 size=       1KiB time=00:00:04.66 bitrate=   1.2kbits/s speed=0.232x elapsed=0:00:20.08    \n[out#0/matroska @ 0000024a2939f040] video:1996KiB audio:0KiB subtitle:0KiB other streams:0KiB global headers:0KiB muxing overhead: 0.071953%\nframe=  150 fps=7.4 q=55.0 Lsize=    1998KiB time=00:00:04.96 bitrate=3295.3kbits/s speed=0.245x elapsed=0:00:20.25    \n",
  "seconds": 20.929779529571533,
  "probe_out": {}
}